# This file uses centimeters as units for non-parametric coordinates.

mtllib skybox.mtl
v -10.000000 -10.000000 10.000000
v 10.000000 -10.000000 10.000000
v -10.000000 10.000000 10.000000
v 10.000000 10.000000 10.000000
v -10.000000 10.000000 -10.000000
v 10.000000 10.000000 -10.000000
v -10.000000 -10.000000 -10.000000
v 10.000000 -10.000000 -10.000000
vt 1.000000 0.333754
vt 0.250096 0.334272
vt 0.249928 1.000000
vt 0.250167 0.666619
vt 0.750981 0.667358
vt 0.499852 0.666385
vt 0.500528 0.000000
vt 0.500749 0.332707
vt 0.250885 0.000000
vt 0.250359 0.332711
vt 0.500456 0.333778
vt 0.500580 0.666620
vt 0.750924 0.333752
vt 0.751048 0.666866
vt 0.000000 0.334271
vt 0.000782 0.667113
vt 1.000000 0.666867
vt 0.250104 0.666279
vt 0.250042 0.333776
vt 0.250221 0.667115
vt 0.500624 0.667360
vt 0.499676 1.000000
vt 0.500001 0.333027
vt 0.751106 0.332705
vn 0.000000 0.000000 -1.000000
vn 0.000000 0.000000 -1.000000
vn 0.000000 0.000000 -1.000000
vn 0.000000 0.000000 -1.000000
vn 0.000000 -1.000000 0.000000
vn 0.000000 -1.000000 0.000000
vn 0.000000 -1.000000 0.000000
vn 0.000000 -1.000000 0.000000
vn 0.000000 0.000000 1.000000
vn 0.000000 0.000000 1.000000
vn 0.000000 0.000000 1.000000
vn 0.000000 0.000000 1.000000
vn 0.000000 1.000000 0.000000
vn 0.000000 1.000000 0.000000
vn 0.000000 1.000000 0.000000
vn 0.000000 1.000000 0.000000
vn -1.000000 0.000000 0.000000
vn -1.000000 0.000000 0.000000
vn -1.000000 0.000000 0.000000
vn -1.000000 0.000000 0.000000
vn 1.000000 0.000000 0.000000
vn 1.000000 0.000000 0.000000
vn 1.000000 0.000000 0.000000
vn 1.000000 0.000000 0.000000
usemtl blinn1SG
f 1/15/1 3/16/2 2/2/3
f 3/16/2 4/20/4 2/2/3
f 3/3/5 5/22/6 4/18/7
f 5/22/6 6/6/8 4/18/7
f 5/5/9 7/24/10 6/21/11
f 7/24/10 8/8/12 6/21/11
f 7/7/13 1/9/14 8/23/15
f 1/9/14 2/10/16 8/23/15
f 2/19/17 4/4/18 8/11/19
f 4/4/18 6/12/20 8/11/19
f 7/13/21 5/14/22 1/1/23
f 5/14/22 3/17/24 1/1/23
